# xmcd
#
# Track frame offsets: 
#        150
#        12936
#        23917
#        34482
#        47569
#        63618
#        80453
#        92067
#        107686
#        127086
#        160853
#        200731
#        223144
#
# Disc length: 3247 seconds
#
# Revision: 0
# Processed by: cddbd v1.5.2PL0 Copyright (c) Steve Scherf et al.
# Submitted via: ExactAudioCopyFreeDBPlugin 1.0
#
DISCID=b90cad0d
DTITLE=Glen Campbell - 1975 - Live in Japan 
DYEAR=1975
DGENRE=
TTITLE0=I Believe in Music
TTITLE1=Galveston
TTITLE2=It's Only Make Believe
TTITLE3=Lovelight
TTITLE4=I Honestly Love You
TTITLE5=Annie's Song
TTITLE6=Song for Y'all
TTITLE7=Coming Home
TTITLE8=Try to Remember - The Way We Were
TTITLE9=Hits Medley
TTITLE10=My Way
TTITLE11=William Tell Overture
TTITLE12=Amazing Grace
EXTD=
EXTT0=
EXTT1=
EXTT2=
EXTT3=
EXTT4=
EXTT5=
EXTT6=
EXTT7=
EXTT8=
EXTT9=
EXTT10=
EXTT11=
EXTT12=
PLAYORDER=
